<?xml version="1.0" encoding="utf-8"?>
<!-- Generator: Adobe Illustrator 15.0.0, SVG Export Plug-In . SVG Version: 6.00 Build 0)  -->
<!DOCTYPE svg PUBLIC "-//W3C//DTD SVG 1.1//EN" "http://www.w3.org/Graphics/SVG/1.1/DTD/svg11.dtd">
<svg version="1.1" id="Layer_1" xmlns="http://www.w3.org/2000/svg" xmlns:xlink="http://www.w3.org/1999/xlink" x="0px" y="0px"
	 width="240px" height="180px" viewBox="0 0 240 180" enable-background="new 0 0 240 180" xml:space="preserve">
<path fill="#FFF" d="M188.654,10.687v73.396c0,5.954-1.638,8.916-4.903,8.916c-1.742,0-2.91-0.599-3.509-1.808
	c-0.603-1.209-0.902-3.586-0.902-7.108V10.687H146.19v73.963c0,5.578-1.631,8.349-4.896,8.349c-1.74,0-2.898-0.564-3.465-1.733
	c-0.578-1.154-0.863-3.543-0.863-7.183V10.687h-33.15v78.438c0,1.39,0.042,2.753,0.119,4.066H64.349
	c-3.957,0-6.574-0.373-7.852-1.134c-1.291-0.76-1.926-2.355-1.926-4.784c0-2.143,0.626-3.673,1.884-4.571
	c1.246-0.902,3.381-1.349,6.396-1.349h32.106V55.625H66.277c-3.57,0-6.055-0.44-7.442-1.318c-1.39-0.878-2.092-2.439-2.092-4.7
	c0-3.83,2.928-5.75,8.778-5.75h30.047V10.681H57.663c-11.369,0-20.19,3.047-26.459,9.138C24.937,25.917,21.8,34.494,21.8,45.548
	v45.278c0,11.456,3.313,20.211,9.95,26.284c6.626,6.059,16.215,9.09,28.757,9.09h71.72c0.858,0.053,1.715,0.105,2.613,0.105
	c6.318,0,11.623-1.221,15.922-3.672c4.305-2.451,8.328-6.541,12.088-12.27c6.094,10.631,14.916,15.941,26.459,15.941
	c9.574,0,17.385-3.188,23.424-9.58c6.049-6.393,9.067-14.657,9.067-24.797V10.687H188.654z"/>
<g>
	<path fill="#FFF" d="M21.581,170.031V143.41h11.107v3.697h-5.724v7.246h4.053v3.787h-4.053v8.193h5.724v3.697H21.581z"/>
	<path fill="#FFF" d="M33.854,170.031v-26.637h3.875l5.842,13.934v-13.934h4.467v26.637H44.31l-5.827-14.775v14.775H33.854z"/>
	<path fill="#FFF" d="M50.445,170.031V143.41h11.107v3.697h-5.724v7.246h4.053v3.787h-4.053v8.193h5.724v3.697H50.445z"/>
	<path fill="#FFF" d="M62.718,170.031V143.41h5.857c1.331,0,2.501,0.125,3.513,0.377c1.01,0.252,1.895,0.646,2.655,1.184
		c0.759,0.537,1.336,1.262,1.73,2.174c0.395,0.912,0.592,2.004,0.592,3.275c0,0.553-0.02,1.045-0.059,1.479
		c-0.04,0.436-0.131,0.93-0.273,1.486c-0.143,0.559-0.338,1.051-0.584,1.48c-0.247,0.428-0.602,0.85-1.065,1.264
		s-1.011,0.76-1.642,1.035c1.597,5.068,2.988,9.357,4.171,12.867h-5.576l-3.047-12.26h-0.888v12.26H62.718z M68.101,154.488h1.539
		c0.414,0,0.769-0.139,1.064-0.414c0.296-0.277,0.51-0.627,0.644-1.051s0.227-0.814,0.281-1.168
		c0.054-0.355,0.081-0.691,0.081-1.006c0-0.316-0.022-0.641-0.066-0.977s-0.124-0.707-0.237-1.117
		c-0.113-0.408-0.301-0.744-0.562-1.006c-0.261-0.26-0.579-0.391-0.954-0.391h-1.79V154.488z"/>
	<path fill="#FFF" d="M78.214,161.705v-9.377c0-6.291,2.618-9.436,7.854-9.436c1.104,0,2.088,0.145,2.951,0.436
		s1.585,0.693,2.167,1.205c0.582,0.514,1.06,1.145,1.435,1.895c0.375,0.748,0.646,1.562,0.813,2.439
		c0.168,0.877,0.251,1.844,0.251,2.898v1.568h-5.146v-1.863c0-0.463-0.013-0.871-0.037-1.221c-0.025-0.35-0.086-0.74-0.185-1.168
		c-0.099-0.43-0.231-0.781-0.399-1.059c-0.167-0.275-0.409-0.506-0.725-0.693s-0.69-0.281-1.124-0.281
		c-1.646,0-2.47,1.311-2.47,3.934v11.492c0,2.613,0.823,3.918,2.47,3.918c1.637,0,2.455-1.355,2.455-4.066v-2.129h-3.046v-3.861
		h8.43v13.695h-3.698l-0.68-1.863c-0.454,0.711-1.1,1.285-1.938,1.723c-0.838,0.439-1.701,0.658-2.588,0.658
		c-0.957,0-1.826-0.174-2.61-0.525c-0.784-0.35-1.43-0.812-1.938-1.389c-0.508-0.578-0.934-1.256-1.279-2.035
		c-0.345-0.777-0.591-1.574-0.739-2.389C78.289,163.398,78.214,162.562,78.214,161.705z"/>
	<path fill="#FFF" d="M96.107,170.031V143.41h5.383v26.621H96.107z"/>
	<path fill="#FFF" d="M103.5,170.031v-3.371l7.025-19.537h-6.212v-3.699h11.477v3.389l-7.055,19.521h7.055v3.697H103.5z"/>
	<path fill="#FFF" d="M117.902,170.031V143.41h11.107v3.697h-5.724v7.246h4.053v3.787h-4.053v8.193h5.724v3.697H117.902z"/>
	<path fill="#FFF" d="M130.175,170.031V143.41h5.561c1.775,0,3.236,0.16,4.385,0.48s2.051,0.848,2.707,1.582
		s1.109,1.615,1.361,2.641c0.25,1.025,0.377,2.332,0.377,3.92v8.725c0,0.947-0.03,1.773-0.09,2.479
		c-0.059,0.705-0.17,1.395-0.332,2.07c-0.163,0.676-0.385,1.248-0.666,1.715c-0.281,0.469-0.643,0.904-1.087,1.309
		c-0.443,0.404-0.979,0.725-1.604,0.963c-0.627,0.236-1.361,0.418-2.203,0.547c-0.844,0.127-1.812,0.191-2.906,0.191H130.175z
		 M135.765,166.26c0.513,0,0.917-0.008,1.213-0.021c0.296-0.016,0.592-0.053,0.888-0.111s0.513-0.141,0.65-0.244
		s0.267-0.254,0.385-0.451s0.194-0.432,0.229-0.701c0.034-0.271,0.051-0.609,0.051-1.014v-14.332c0-0.877-0.261-1.459-0.783-1.744
		c-0.522-0.287-1.4-0.436-2.633-0.445V166.26z"/>
	<path fill="#FFF" d="M154.351,170.031l-3.684-26.621h4.586l1.656,17.629l2.277-17.629h3.949l2.232,17.525l1.73-17.525h4.6
		l-3.727,26.621h-4.6l-2.233-17.422l-2.188,17.422H154.351z"/>
	<path fill="#FFF" d="M172.45,161.275v-8.947c0-6.291,2.593-9.436,7.779-9.436c5.195,0,7.794,3.145,7.794,9.436v8.814
		c0,1.064-0.079,2.049-0.236,2.951s-0.427,1.758-0.806,2.566c-0.381,0.809-0.863,1.496-1.449,2.062
		c-0.588,0.566-1.33,1.014-2.227,1.338c-0.897,0.326-1.923,0.488-3.076,0.488c-1.145,0-2.164-0.16-3.062-0.48
		s-1.637-0.754-2.219-1.301c-0.581-0.547-1.062-1.219-1.442-2.012c-0.379-0.793-0.65-1.639-0.812-2.537
		C172.531,163.322,172.45,162.342,172.45,161.275z M182.64,162.488v-11.506c0-2.623-0.803-3.934-2.41-3.934
		c-0.483,0-0.893,0.121-1.228,0.361c-0.335,0.242-0.582,0.572-0.739,0.992c-0.158,0.418-0.27,0.832-0.333,1.242
		c-0.064,0.408-0.097,0.855-0.097,1.338v11.506c0,2.613,0.799,3.92,2.396,3.92C181.837,166.408,182.64,165.102,182.64,162.488z"/>
	<path fill="#FFF" d="M190.091,170.031V143.41h5.857c1.331,0,2.502,0.125,3.513,0.377s1.896,0.646,2.655,1.184
		c0.758,0.537,1.336,1.262,1.729,2.174c0.395,0.912,0.592,2.004,0.592,3.275c0,0.553-0.021,1.045-0.06,1.479
		c-0.039,0.436-0.131,0.93-0.273,1.486c-0.143,0.559-0.338,1.051-0.584,1.48c-0.246,0.428-0.602,0.85-1.064,1.264
		c-0.464,0.414-1.012,0.76-1.643,1.035c1.598,5.068,2.988,9.357,4.172,12.867h-5.576l-3.047-12.26h-0.888v12.26H190.091z
		 M195.475,154.488h1.538c0.414,0,0.77-0.139,1.064-0.414c0.297-0.277,0.511-0.627,0.645-1.051c0.133-0.424,0.227-0.814,0.281-1.168
		c0.053-0.355,0.08-0.691,0.08-1.006c0-0.316-0.021-0.641-0.066-0.977c-0.044-0.336-0.123-0.707-0.236-1.117
		c-0.113-0.408-0.301-0.744-0.562-1.006c-0.261-0.26-0.578-0.391-0.953-0.391h-1.79V154.488z"/>
	<path fill="#FFF" d="M205.929,170.031V143.41h5.383v10.102l4.172-10.102h6.02l-5.428,10.9l5.826,15.721h-5.59l-4.023-12.172
		l-0.977,2.514v9.658H205.929z"/>
</g>
</svg>
