<?xml version="1.0" encoding="utf-8"?>
<!-- Generator: Adobe Illustrator 15.0.0, SVG Export Plug-In . SVG Version: 6.00 Build 0)  -->
<!DOCTYPE svg PUBLIC "-//W3C//DTD SVG 1.1//EN" "http://www.w3.org/Graphics/SVG/1.1/DTD/svg11.dtd">
<svg version="1.1" id="Layer_1" xmlns="http://www.w3.org/2000/svg" xmlns:xlink="http://www.w3.org/1999/xlink" x="0px" y="0px"
	 width="553.534px" height="377.157px" viewBox="0 0 553.534 377.157" enable-background="new 0 0 553.534 377.157"
	 xml:space="preserve">
<path fill="#DE0070" d="M416.341,68.682v152.345c0,12.358-3.399,18.507-10.177,18.507c-3.618,0-6.041-1.243-7.283-3.752
	c-1.25-2.51-1.873-7.444-1.873-14.755V68.682h-68.809v153.521c0,11.579-3.385,17.331-10.163,17.331
	c-3.612,0-6.015-1.173-7.191-3.599c-1.2-2.396-1.792-7.354-1.792-14.908V68.682h-68.809v162.811c0,2.886,0.086,5.715,0.247,8.44
	h-82.167c-8.213,0-13.645-0.772-16.297-2.353c-2.679-1.576-3.999-4.888-3.999-9.93c0-4.448,1.3-7.624,3.912-9.489
	c2.586-1.873,7.018-2.8,13.275-2.8h66.643v-53.403h-59.532c-7.41,0-12.568-0.913-15.447-2.736c-2.886-1.822-4.342-5.064-4.342-9.756
	c0-7.951,6.078-11.936,18.22-11.936h62.368V68.668h-78.678c-23.598,0-41.908,6.324-54.92,18.967
	c-13.008,12.658-19.52,30.462-19.52,53.407v93.982c0,23.778,6.877,41.952,20.653,54.557c13.755,12.576,33.658,18.867,59.691,18.867
	h148.866c1.783,0.109,3.562,0.22,5.425,0.22c13.115,0,24.128-2.532,33.048-7.62c8.937-5.089,17.287-13.579,25.091-25.468
	c12.649,22.065,30.962,33.088,54.92,33.088c19.873,0,36.087-6.617,48.622-19.886c12.557-13.269,18.82-30.423,18.82-51.469V68.682
	H416.341z"/>
</svg>
