<?xml version="1.0" encoding="UTF-8"?>
<svg width="1280px" height="372px" viewBox="0 0 1280 372" version="1.1" xmlns="http://www.w3.org/2000/svg" xmlns:xlink="http://www.w3.org/1999/xlink">
    <!-- Generator: Sketch 46.1 (44463) - http://www.bohemiancoding.com/sketch -->
    <title>Group 62</title>
    <desc>Created with Sketch.</desc>
    <defs></defs>
    <g id="Page-1" stroke="none" stroke-width="1" fill="none" fill-rule="evenodd">
        <g id="Group-62">
            <path d="M1280,372 L0,372 C234.863163,369.337038 430.988647,369.981246 615.597078,216.569438 C892.509725,-13.5482741 1164.65261,-4.57281707 1280,2.6792969 L1280,372 Z" id="Path-17" fill="#FFF"></path>
            <g id="Group-55" transform="translate(803.000000, 77.000000)">
                <ellipse id="Oval-35" fill-opacity="0.100000001" fill="#000000" cx="234.71834" cy="274.149479" rx="82.1209446" ry="9.01625685"></ellipse>
                <ellipse id="Oval-34" fill="#DE0070" opacity="0.599999964" cx="126.559048" cy="6.66719284" rx="6.0088496" ry="6.0108379"></ellipse>
                <ellipse id="Oval-34" fill="#DE0070" opacity="0.599999964" cx="437.016277" cy="146.920077" rx="6.0088496" ry="6.0108379"></ellipse>
                <ellipse id="Oval-34" fill="#DE0070" opacity="0.599999964" cx="113.539873" cy="224.059164" rx="3.0044248" ry="3.00541895"></ellipse>
                <path d="M346.347204,12.3011257 L346.347204,8.23046904 C346.347204,7.92037778 346.095908,7.66899916 345.78592,7.66899916 C345.475931,7.66899916 345.224636,7.92037778 345.224636,8.23046904 L345.224636,12.3011257 L341.435968,12.3011257 C341.125979,12.3011257 340.874683,12.5525043 340.874683,12.8625955 C340.874683,13.1726868 341.125979,13.4240654 341.435968,13.4240654 L345.224636,13.4240654 L345.224636,17.2139871 C345.224636,17.5240784 345.475931,17.775457 345.78592,17.775457 C346.095908,17.775457 346.347204,17.5240784 346.347204,17.2139871 L346.347204,13.4240654 L349.85523,13.4240654 C350.165219,13.4240654 350.416514,13.1726868 350.416514,12.8625955 C350.416514,12.5525043 350.165219,12.3011257 349.85523,12.3011257 L346.347204,12.3011257 Z" id="Combined-Shape" stroke="#DE0070" stroke-width="4" fill="#DE0070" opacity="0.599999964" stroke-linecap="round"></path>
                <path d="M5.8457264,152.55401 L5.8457264,148.483353 C5.8457264,148.173262 5.59443092,147.921883 5.28444224,147.921883 C4.97445356,147.921883 4.72315809,148.173262 4.72315809,148.483353 L4.72315809,152.55401 L0.934490048,152.55401 C0.624501369,152.55401 0.373205893,152.805389 0.373205893,153.11548 C0.373205893,153.425571 0.624501369,153.67695 0.934490048,153.67695 L4.72315809,153.67695 L4.72315809,157.466871 C4.72315809,157.776963 4.97445356,158.028341 5.28444224,158.028341 C5.59443092,158.028341 5.8457264,157.776963 5.8457264,157.466871 L5.8457264,153.67695 L9.35375236,153.67695 C9.66374104,153.67695 9.91503652,153.425571 9.91503652,153.11548 C9.91503652,152.805389 9.66374104,152.55401 9.35375236,152.55401 L5.8457264,152.55401 Z" id="Combined-Shape" stroke="#DE0070" stroke-width="4" fill="#DE0070" opacity="0.599999964" stroke-linecap="round"></path>
                <rect id="Rectangle-32" fill="#DE0070" opacity="0.599999964" transform="translate(363.152684, 241.335504) rotate(-60.000000) translate(-363.152684, -241.335504) " x="355.641622" y="233.821957" width="15.022124" height="15.0270947" rx="3"></rect>
                <g id="Page-1" transform="translate(113.539873, 17.687062)" fill-opacity="1" fill="#DE0070">
                    <path d="M97.4789633,113.221345 C97.6582273,113.855488 97.7363424,114.51668 97.7093025,115.186889 C97.6642362,116.289878 98.5225002,117.220556 99.6251241,117.264635 C100.712726,117.318733 101.658118,116.45217 101.702183,115.34818 C101.747249,114.254207 101.620062,113.171255 101.324627,112.130378 C99.4488645,105.515451 91.2037214,102.036177 82.9455591,104.380404 C74.6873967,106.723629 69.4937477,114.010768 71.3695103,120.626697 C71.6188775,121.506283 72.4200575,122.08132 73.2903392,122.08132 C73.4716062,122.08132 73.6548761,122.055273 73.8371445,122.004181 C74.898708,121.703639 75.5156165,120.597645 75.2141726,119.53573 C73.9402964,115.040625 77.8981254,109.96848 84.0361653,108.22734 C90.1772096,106.486201 96.2050872,108.727242 97.4789633,113.221345" id="Fill-1"></path>
                    <path d="M106.896233,150.792087 C106.896233,150.792087 114.707737,139.338436 125.830118,147.519186 C125.830118,147.519186 123.618861,154.064988 106.896233,150.792087 M114.340196,131.76478 C102.640966,131.76478 93.1569981,126.608483 93.1569981,137.511141 C93.1569981,148.414801 102.640966,157.252736 114.340196,157.252736 C126.039426,157.252736 135.523394,148.414801 135.523394,137.511141 C135.523394,126.608483 126.039426,131.76478 114.340196,131.76478" id="Fill-3"></path>
                    <path d="M81.6739863,31.7746917 C83.0289819,31.1976512 83.6579082,29.631828 83.0810586,28.2783876 C82.5052105,26.9229437 80.9389037,26.2928075 79.5859111,26.8698479 C75.7983329,28.4847597 72.0758506,30.3671538 68.523619,32.4639344 C67.2557517,33.2132855 66.8351322,34.8472316 67.583234,36.1145166 C68.0799656,36.9580375 68.9682738,37.4258811 69.8806175,37.4258811 C70.3402945,37.4258811 70.8069818,37.3056643 71.2326087,37.0552128 C74.5865482,35.0746417 78.0997223,33.2984391 81.6739863,31.7746917" id="Fill-5"></path>
                    <path d="M55.1715546,41.9855024 C48.5688303,47.6056358 42.7602757,54.0943353 37.9081296,61.2692722 C37.0829143,62.4884704 37.4033863,64.1454581 38.6221813,64.9699447 C39.0798553,65.2805046 39.5986193,65.428772 40.112376,65.428772 C40.9676356,65.428772 41.8068716,65.0180314 42.3226312,64.2556568 C46.904379,57.4814425 52.3904587,51.354395 58.6256416,46.0458234 C59.7462921,45.091102 59.8814912,43.4090691 58.928087,42.2880479 C57.9736814,41.1670266 56.292205,41.0327846 55.1715546,41.9855024" id="Fill-7"></path>
                    <path d="M33.2471652,74.6704353 C31.9021843,74.0743605 30.3268642,74.6814551 29.7309867,76.026881 C29.0750206,77.5065489 28.4470958,79.0292945 27.8642374,80.5530419 C27.3374616,81.928522 28.0254748,83.4693001 29.3994985,83.9962503 C29.7129601,84.116467 30.0344336,84.1725682 30.3508996,84.1725682 C31.4234793,84.1725682 32.4339675,83.5213941 32.8405663,82.4594794 C33.3913775,81.0208855 33.9842507,79.5832934 34.6031622,78.1877772 C35.2000413,76.8413495 34.592146,75.2675118 33.2471652,74.6704353" id="Fill-9"></path>
                    <path d="M149.704379,104.380304 C141.444214,102.039083 133.202075,105.51535 131.325311,112.130278 C131.030877,113.17416 130.90369,114.257112 130.947755,115.348079 C130.992821,116.45207 131.928199,117.314625 133.024814,117.264535 C134.128439,117.220455 134.985702,116.290779 134.940635,115.186789 C134.914597,114.517582 134.991711,113.85639 135.170975,113.220243 C136.444851,108.727142 142.474731,106.488104 148.614774,108.22724 C154.752814,109.96838 158.709642,115.041527 157.435765,119.53563 C157.134321,120.597545 157.75123,121.703539 158.813795,122.004081 C158.995062,122.056175 159.178332,122.08122 159.359599,122.08122 C160.230882,122.08122 161.032062,121.506183 161.281429,120.626597 C163.15619,114.010668 157.963543,106.723529 149.704379,104.380304" id="Fill-11"></path>
                    <path d="M200.413862,208.625865 C197.747936,208.625865 195.343394,207.169239 194.071521,204.873098 C197.545638,201.808573 200.851506,198.526655 203.972102,195.032355 C206.247453,196.306653 207.678561,198.694959 207.678561,201.358762 C207.678561,205.365987 204.419762,208.625865 200.413862,208.625865 M132.975541,226.734516 C97.9469525,231.863764 62.3695555,219.814038 37.5960701,194.49739 C39.8994624,191.178406 41.2584639,187.157156 41.2584639,182.819334 C41.2584639,171.49191 32.045896,162.275292 20.7212174,162.275292 C19.0687838,162.275292 17.4704298,162.492684 15.9291599,162.863352 C11.6458516,153.421328 8.69550641,143.391243 7.17927336,133.026555 C2.50238542,101.054908 11.9633191,68.7055803 33.1355007,44.267517 C33.1415096,44.267517 33.1475184,44.267517 33.1535272,44.267517 C37.2826084,44.267517 40.6415553,40.9084604 40.6415553,36.778013 C40.6415553,36.0777503 40.5384034,35.4015311 40.3581379,34.7583714 L41.3105406,35.7802139 C57.8278667,20.360411 78.4181913,10.4735845 100.857239,7.18966339 C161.371362,-1.67832612 217.798465,40.3694886 226.652505,100.897624 C230.942824,130.218492 223.560952,159.456209 205.867894,183.224064 C188.173835,206.991919 162.287711,222.444781 132.975541,226.734516 M20.7212174,199.355149 C11.6057926,199.355149 4.18987068,191.937775 4.18987068,182.819334 C4.18987068,173.701895 11.6057926,166.282517 20.7212174,166.282517 C29.8366423,166.282517 37.2525642,173.701895 37.2525642,182.819334 C37.2525642,191.937775 29.8366423,199.355149 20.7212174,199.355149 M17.4844504,44.9938266 C17.4844504,40.9866013 20.7432499,37.7267235 24.7491496,37.7267235 C25.0836422,37.7267235 25.4161319,37.7627886 25.7446157,37.8078698 C25.9469136,39.2644962 26.5648237,40.5878824 27.4801717,41.6518007 C24.9844962,44.619151 22.6470537,47.6896874 20.477859,50.8573989 C18.6471628,49.511973 17.4844504,47.3420606 17.4844504,44.9938266 M33.1535272,33.2937306 C35.0743562,33.2937306 36.6356556,34.8565484 36.6356556,36.778013 C36.6356556,38.6984757 35.0743562,40.2602917 33.1535272,40.2602917 C31.2336998,40.2602917 29.6713989,38.6984757 29.6713989,36.778013 C29.6713989,34.8565484 31.2336998,33.2937306 33.1535272,33.2937306 M206.628014,191.954806 C208.021065,190.283793 209.377063,188.572708 210.686992,186.814538 C229.339462,161.75836 237.120923,130.936787 232.599263,100.027055 C223.263514,36.219005 163.776904,-8.09088836 99.986957,1.24093748 C76.5804848,4.66811689 55.0858283,14.9206027 37.7643178,30.8873918 C36.4924447,29.8885909 34.8930892,29.2865053 33.1535272,29.2865053 C30.0709874,29.2865053 27.4180803,31.1608849 26.2713915,33.8306988 C25.7686511,33.7625759 25.2599018,33.7194983 24.7491496,33.7194983 C18.5349976,33.7194983 13.4785507,38.7776184 13.4785507,44.9938266 C13.4785507,48.7015117 15.3412941,52.129693 18.2696068,54.2084411 C3.31558306,77.7238407 -2.854504,105.943723 1.23451815,133.897125 C2.81985297,144.734665 5.89738544,155.226583 10.3559519,165.114411 C4.28200638,168.686852 0.183970945,175.275733 0.183970945,182.819334 C0.183970945,194.146758 9.39754034,203.362375 20.7212174,203.362375 C25.5433192,203.362375 29.9738443,201.680342 33.4810096,198.886304 C55.6116026,221.401901 85.8681634,233.907449 117.015035,233.907449 C122.610276,233.907449 128.23556,233.503721 133.845823,232.683242 C155.15721,229.562615 174.750065,220.843895 190.976964,207.515863 C193.032992,210.673557 196.553176,212.63309 200.413862,212.63309 C206.628014,212.63309 211.684461,207.57497 211.684461,201.358762 C211.684461,197.501808 209.753617,194.012516 206.628014,191.954806" id="Fill-13"></path>
                </g>
                <ellipse id="Oval-38" stroke="#DE0070" stroke-width="3" opacity="0.6" cx="171.62542" cy="23.6979002" rx="5.51032454" ry="5.51264422"></ellipse>
                <ellipse id="Oval-38" stroke="#DE0070" stroke-width="3" opacity="0.6" cx="329.357722" cy="41.2295108" rx="3.0066372" ry="3.00812842"></ellipse>
                <ellipse id="Oval-38" stroke="#DE0070" stroke-width="3" opacity="0.6" cx="159.106983" cy="251.608837" rx="3.0066372" ry="3.00812842"></ellipse>
            </g>
        </g>
    </g>
</svg>
