<?xml version="1.0" encoding="UTF-8"?>
<svg width="902px" height="190px" viewBox="0 0 902 190" version="1.1" xmlns="http://www.w3.org/2000/svg" xmlns:xlink="http://www.w3.org/1999/xlink">
    <!-- Generator: Sketch 46.2 (44496) - http://www.bohemiancoding.com/sketch -->
    <title>TIL-graphic</title>
    <desc>Created with Sketch.</desc>
    <defs></defs>
    <g id="Page-1" stroke="none" stroke-width="1" fill="none" fill-rule="evenodd">
        <g id="TIL-graphic">
            <path d="M902,190 L0,190 C165.505136,188.639885 363.712312,188.968916 493.803566,110.613423 C688.940447,-6.91981743 820.716137,-2.33557861 902,1.36845809 L902,190 Z" id="Path-17" fill="#FFFFFF"></path>
            <ellipse id="Oval-35" fill-opacity="0.100000001" fill="#000000" cx="774.932068" cy="177.423815" rx="44.7596139" ry="4.91426612"></ellipse>
            <ellipse id="Oval-34" fill="#DE0070" opacity="0.599999964" cx="715.980382" cy="31.6339204" rx="3.2750937" ry="3.27617741"></ellipse>
            <ellipse id="Oval-34" fill="#DE0070" opacity="0.599999964" cx="885.193556" cy="108.07806" rx="3.2750937" ry="3.27617741"></ellipse>
            <ellipse id="Oval-34" fill="#DE0070" opacity="0.599999964" cx="708.884345" cy="150.122337" rx="1.63754685" ry="1.63808871"></ellipse>
            <path d="M835.774827,34.7046676 L835.774827,32.4859764 C835.774827,32.3169627 835.63786,32.17995 835.468902,32.17995 C835.299944,32.17995 835.162977,32.3169627 835.162977,32.4859764 L835.162977,34.7046676 L833.097982,34.7046676 C832.929025,34.7046676 832.792057,34.8416803 832.792057,35.010694 C832.792057,35.1797077 832.929025,35.3167203 833.097982,35.3167203 L835.162977,35.3167203 L835.162977,37.3823984 C835.162977,37.5514121 835.299944,37.6884248 835.468902,37.6884248 C835.63786,37.6884248 835.774827,37.5514121 835.774827,37.3823984 L835.774827,35.3167203 L837.68686,35.3167203 C837.855817,35.3167203 837.992785,35.1797077 837.992785,35.010694 C837.992785,34.8416803 837.855817,34.7046676 837.68686,34.7046676 L835.774827,34.7046676 Z" id="Combined-Shape" stroke="#DE0070" stroke-width="2" fill="#FFFFFF" opacity="0.599999964" stroke-linecap="round"></path>
            <path d="M650.186184,111.148807 L650.186184,108.930116 C650.186184,108.761102 650.049217,108.62409 649.880259,108.62409 C649.711301,108.62409 649.574334,108.761102 649.574334,108.930116 L649.574334,111.148807 L647.509339,111.148807 C647.340381,111.148807 647.203414,111.28582 647.203414,111.454834 C647.203414,111.623847 647.340381,111.76086 647.509339,111.76086 L649.574334,111.76086 L649.574334,113.826538 C649.574334,113.995552 649.711301,114.132564 649.880259,114.132564 C650.049217,114.132564 650.186184,113.995552 650.186184,113.826538 L650.186184,111.76086 L652.098216,111.76086 C652.267174,111.76086 652.404142,111.623847 652.404142,111.454834 C652.404142,111.28582 652.267174,111.148807 652.098216,111.148807 L650.186184,111.148807 Z" id="Combined-Shape" stroke="#DE0070" stroke-width="2" fill="#FFFFFF" opacity="0.599999964" stroke-linecap="round"></path>
            <rect id="Rectangle-32" fill="#DE0070" opacity="0.599999964" transform="translate(844.934571, 159.538721) rotate(-60.000000) translate(-844.934571, -159.538721) " x="840.840704" y="155.443499" width="8.18773426" height="8.19044353" rx="2"></rect>
            <g id="Page-1" transform="translate(708.884345, 37.640246)" fill="#DE0070">
                <path d="M53.1304259,61.710733 C53.2281329,62.0563697 53.2707091,62.4167492 53.2559712,62.782043 C53.231408,63.3832216 53.6992005,63.890483 54.3001802,63.9145083 C54.8929722,63.9439939 55.4082536,63.4716784 55.432271,62.8699538 C55.4568342,62.2736895 55.3875114,61.6834315 55.2264859,61.1161068 C54.2041108,57.5106736 49.7101364,55.6143129 45.209066,56.8920221 C40.7079955,58.1691852 37.8772229,62.1410043 38.899598,65.7469836 C39.0355143,66.2263975 39.4721935,66.5398185 39.9465362,66.5398185 C40.0453349,66.5398185 40.1452253,66.5256217 40.2445698,66.4977742 C40.8231697,66.3339654 41.1594126,65.7311487 40.9951121,65.1523574 C40.3007922,62.7023227 42.4579873,59.937775 45.8034955,58.9887756 C49.1506412,58.0397762 52.4361061,59.2612444 53.1304259,61.710733" id="Fill-1"></path>
                <path d="M58.263262,82.1884799 C58.263262,82.1884799 62.5208838,75.9457239 68.5830822,80.4046013 C68.5830822,80.4046013 67.3778477,83.9723585 58.263262,82.1884799 M62.3205572,71.8177403 C55.9439498,71.8177403 50.7747602,69.0073261 50.7747602,74.9497659 C50.7747602,80.8927518 55.9439498,85.7098246 62.3205572,85.7098246 C68.6971647,85.7098246 73.8663542,80.8927518 73.8663542,74.9497659 C73.8663542,69.0073261 68.6971647,71.8177403 62.3205572,71.8177403" id="Fill-3"></path>
                <path d="M44.5160016,17.3186383 C45.2545352,17.0041252 45.5973283,16.150681 45.2829193,15.4129951 C44.9690562,14.674217 44.1153484,14.3307644 43.3779065,14.6452775 C41.3135058,15.5254771 39.2845852,16.5514667 37.348459,17.6943066 C36.6574142,18.1027367 36.4281577,18.9933109 36.8359068,19.6840383 C37.1066479,20.1437952 37.5908159,20.398791 38.0880843,20.398791 C38.338629,20.398791 38.5929946,20.3332675 38.8249804,20.1967601 C40.6530285,19.1172597 42.5678667,18.1491492 44.5160016,17.3186383" id="Fill-5"></path>
                <path d="M30.0709824,22.88399 C26.4722003,25.9472159 23.3062764,29.4838494 20.6616382,33.3945132 C20.2118587,34.0590312 20.3865304,34.9621641 21.0508285,35.4115464 C21.3002815,35.5808156 21.5830313,35.661628 21.8630518,35.661628 C22.3292068,35.661628 22.7866282,35.4377559 23.0677404,35.0222273 C25.5649994,31.3299754 28.5551599,27.9904586 31.9536155,25.0970479 C32.5644204,24.5766817 32.6381101,23.659898 32.1184619,23.048891 C31.5982678,22.4378839 30.6817874,22.3647159 30.0709824,22.88399" id="Fill-7"></path>
                <path d="M18.1212026,40.6987507 C17.3881275,40.3738632 16.5295071,40.7047571 16.204727,41.4380748 C15.8471959,42.2445605 15.5049486,43.0745254 15.1872645,43.9050364 C14.900148,44.654735 15.2751462,45.4945285 16.024051,45.78174 C16.1949017,45.8472636 16.3701192,45.8778412 16.5426075,45.8778412 C17.1272117,45.8778412 17.6779733,45.522922 17.899588,44.9441306 C18.1998049,44.1600322 18.5229475,43.3764798 18.8602821,42.6158606 C19.1856081,41.8819968 18.8542778,41.0241844 18.1212026,40.6987507" id="Fill-9"></path>
                <path d="M81.5956299,56.8919675 C77.0934678,55.6158964 72.6011309,57.510619 71.57821,61.1160522 C71.4177304,61.685015 71.3484076,62.275273 71.3724249,62.8698992 C71.3969881,63.4716238 71.9068111,63.9417552 72.5045157,63.9144537 C73.1060412,63.8904284 73.5732879,63.383713 73.5487247,62.7819884 C73.5345326,62.4172407 73.576563,62.0568611 73.67427,61.7101324 C74.3685898,59.2611898 77.6551464,58.0408137 81.0017463,58.988721 C84.3472545,59.9377204 86.5039037,62.7028141 85.8095838,65.1523028 C85.6452833,65.7310941 85.9815263,66.3339108 86.560672,66.4977196 C86.6594707,66.5261132 86.759361,66.5397639 86.8581597,66.5397639 C87.3330483,66.5397639 87.7697274,66.2263429 87.9056438,65.746929 C88.927473,62.1409497 86.0972462,58.1691306 81.5956299,56.8919675" id="Fill-11"></path>
                <path d="M109.234582,113.710494 C107.781532,113.710494 106.470949,112.916567 105.777721,111.665067 C107.671271,109.994763 109.473118,108.20597 111.173984,106.301419 C112.414153,106.995968 113.194171,108.297703 113.194171,109.749595 C113.194171,111.933714 111.417978,113.710494 109.234582,113.710494 M72.4776599,123.580524 C53.3855012,126.376196 33.9942172,119.808552 20.4915517,106.009839 C21.7470043,104.200843 22.4877213,102.00908 22.4877213,99.6447722 C22.4877213,93.4708159 17.4664568,88.4473439 11.2939969,88.4473439 C10.3933461,88.4473439 9.52217119,88.5658323 8.68210965,88.7678632 C6.34751369,83.6215345 4.73944268,78.1546865 3.91302737,72.5054646 C1.36391277,55.0794769 6.52054781,37.4476361 18.0603405,24.1277908 C18.0636156,24.1277908 18.0668907,24.1277908 18.0701658,24.1277908 C20.320701,24.1277908 22.1514784,22.2969536 22.1514784,20.0456737 C22.1514784,19.6639991 22.0952559,19.2954291 21.9970031,18.9448781 L22.5161055,19.5018283 C31.5187922,11.0973412 42.7414466,5.70857533 54.9717382,3.91869041 C87.954661,-0.914763337 118.709974,22.0031897 123.535825,54.9937503 C125.874242,70.9749437 121.850789,86.9108167 112.207276,99.8653682 C102.563217,112.81992 88.4541128,121.242426 72.4776599,123.580524 M11.2939969,108.657536 C6.32567973,108.657536 2.28366825,104.614733 2.28366825,99.6447722 C2.28366825,94.6753571 6.32567973,90.6314621 11.2939969,90.6314621 C16.262314,90.6314621 20.3043255,94.6753571 20.3043255,99.6447722 C20.3043255,104.614733 16.262314,108.657536 11.2939969,108.657536 M9.52981307,24.5236622 C9.52981307,22.3395439 11.3060056,20.5627637 13.4894014,20.5627637 C13.6717149,20.5627637 13.8529368,20.5824208 14.0319752,20.6069921 C14.1422367,21.4009191 14.4790255,22.1222242 14.9779314,22.7021076 C13.6176759,24.3194472 12.3436644,25.9930278 11.1613556,27.7195733 C10.1635437,26.9862556 9.52981307,25.8035555 9.52981307,24.5236622 M18.0701658,18.1465829 C19.117104,18.1465829 19.9680826,18.998389 19.9680826,20.0456737 C19.9680826,21.0924124 19.117104,21.9436725 18.0701658,21.9436725 C17.0237733,21.9436725 16.172249,21.0924124 16.172249,20.0456737 C16.172249,18.998389 17.0237733,18.1465829 18.0701658,18.1465829 M112.621575,104.624016 C113.380851,103.713239 114.11993,102.78062 114.833901,101.822338 C125.000338,88.1655926 129.241584,71.3664469 126.777076,54.5192506 C121.688672,19.7409892 89.2657902,-4.40989861 54.4973955,0.676366827 C41.7398138,2.54433398 30.0242578,8.13240059 20.5832543,16.8350199 C19.8900262,16.2906284 19.0183054,15.9624646 18.0701658,15.9624646 C16.3900427,15.9624646 14.9440888,16.9840859 14.3190918,18.4392547 C14.0450756,18.4021247 13.7677843,18.3786455 13.4894014,18.3786455 C10.1024086,18.3786455 7.34641727,21.1355487 7.34641727,24.5236622 C7.34641727,26.5445177 8.36169632,28.4130308 9.95775865,29.5460422 C1.80714212,42.3629943 -1.55583326,57.7441012 0.672868001,72.9799643 C1.53694689,78.8869121 3.21434072,84.6054798 5.64446024,89.9947917 C2.33388636,91.9419331 0.100272452,95.5331696 0.100272452,99.6447722 C0.100272452,105.818729 5.1220828,110.841655 11.2939969,110.841655 C13.9222596,110.841655 16.3370953,109.924871 18.2486584,108.401994 C30.3108285,120.674009 46.802017,127.490096 63.7784652,127.490096 C66.8281233,127.490096 69.8941568,127.270046 72.9520026,126.822848 C84.5676683,125.121966 95.2466572,120.369871 104.091048,113.105493 C105.211676,114.826578 107.130335,115.894612 109.234582,115.894612 C112.621575,115.894612 115.377566,113.137709 115.377566,109.749595 C115.377566,107.647382 114.32517,105.745561 112.621575,104.624016" id="Fill-13"></path>
            </g>
            <ellipse id="Oval-38" stroke="#DE0070" stroke-width="3" opacity="0.6" cx="740.543585" cy="40.9164231" rx="2.32094265" ry="2.32220698"></ellipse>
            <ellipse id="Oval-38" stroke="#DE0070" stroke-width="3" opacity="0.6" cx="826.514794" cy="50.4719406" rx="1" ry="1"></ellipse>
            <ellipse id="Oval-38" stroke="#DE0070" stroke-width="3" opacity="0.6" cx="733.720473" cy="165.13815" rx="1" ry="1"></ellipse>
        </g>
    </g>
</svg>